# xmcd CD database file
#
# Track frame offsets:
#	150
#	19410
#	35525
#	56224
#	73126
#	90994
#	104458
#	117127
#	139201
#	157235
#	171438
#	182635
#	194686
#	207067
#	220650
#
# Disc length: 3142 seconds
#
# Revision: 0
# Processed by: cddbd v1.5.2PL0 Copyright (c) Steve Scherf et al.
# Submitted via: CDex 1.51
#
DISCID=e40c440f
DTITLE=Lone Star Ladies - Shania Twain Tribute
DYEAR=2000
DGENRE=Country
TTITLE0=Whose Bed Have Your Boots Been Under
TTITLE1=Your Still The One
TTITLE2=From This Moment On
TTITLE3=That Don't Impress Me Much
TTITLE4=Man I Feel Like A Woman
TTITLE5=Come On Over
TTITLE6=Gog Ain't Gonna Getcha For That
TTITLE7=Woman In Me
TTITLE8=God Bless The Child
TTITLE9=No One Needs To Know
TTITLE10=Dolly Parton_Honkey Tonk Angels
TTITLE11=Holly Dunn_Are You Gonna Ever Love Me
TTITLE12=Patsy Cline_Walkin' After Midnight
TTITLE13=Lynn Anderson_Rose Garden
TTITLE14=Juice Newton_Queen Of Hearts
EXTD=YEAR: 2000
EXTT0=
EXTT1=
EXTT2=
EXTT3=
EXTT4=
EXTT5=
EXTT6=
EXTT7=
EXTT8=
EXTT9=
EXTT10=
EXTT11=
EXTT12=
EXTT13=
EXTT14=
PLAYORDER=
